G04 #@! TF.FileFunction,Soldermask,Top*
%FSLAX46Y46*%
G04 Gerber Fmt 4.6, Leading zero omitted, Abs format (unit mm)*
G04 Created by KiCad (PCBNEW (2015-01-08 BZR 5360)-product) date 2015-01-22T23:58:58 CET*
%MOMM*%
G01*
G04 APERTURE LIST*
%ADD10C,0.100000*%
%ADD11C,0.600000*%
%ADD12R,2.032000X2.032000*%
%ADD13O,2.032000X2.032000*%
%ADD14R,1.727200X2.032000*%
%ADD15O,1.727200X2.032000*%
%ADD16R,1.500000X1.500000*%
%ADD17C,1.500000*%
%ADD18O,1.300000X2.500000*%
%ADD19C,3.250000*%
%ADD20R,2.032000X1.727200*%
%ADD21O,2.032000X1.727200*%
%ADD22C,3.300000*%
%ADD23O,3.500000X1.500000*%
%ADD24C,1.100000*%
%ADD25R,2.500000X0.500000*%
%ADD26R,2.500000X2.000000*%
%ADD27O,1.000000X2.000000*%
%ADD28R,0.400000X1.350000*%
%ADD29C,0.500000*%
%ADD30R,1.600000X1.200000*%
G04 APERTURE END LIST*
D10*
D11*
X82500000Y-84500000D03*
X83500000Y-84500000D03*
X81500000Y-84500000D03*
D12*
X67305000Y-62145000D03*
D13*
X64765000Y-62145000D03*
D12*
X67305000Y-64685000D03*
D13*
X64765000Y-64685000D03*
D14*
X92705000Y-64685000D03*
D15*
X90165000Y-64685000D03*
X87625000Y-64685000D03*
X85085000Y-64685000D03*
X82545000Y-64685000D03*
X80005000Y-64685000D03*
X77465000Y-64685000D03*
X74925000Y-64685000D03*
X72385000Y-64685000D03*
D12*
X100325000Y-64685000D03*
D13*
X97785000Y-64685000D03*
D14*
X92705000Y-62145000D03*
D15*
X90165000Y-62145000D03*
X87625000Y-62145000D03*
X85085000Y-62145000D03*
X82545000Y-62145000D03*
X80005000Y-62145000D03*
X77465000Y-62145000D03*
X74925000Y-62145000D03*
X72385000Y-62145000D03*
D12*
X100325000Y-62145000D03*
D13*
X97785000Y-62145000D03*
D16*
X96400000Y-75080000D03*
D17*
X95380000Y-73300000D03*
X94360000Y-75080000D03*
X93340000Y-73300000D03*
X92320000Y-75080000D03*
X91300000Y-73300000D03*
X90280000Y-75080000D03*
X89260000Y-73300000D03*
D18*
X100930000Y-74190000D03*
X84730000Y-74190000D03*
D17*
X97400000Y-68620000D03*
D19*
X99180000Y-77620000D03*
X86480000Y-77620000D03*
D17*
X99690000Y-68620000D03*
X85970000Y-68620000D03*
X88260000Y-68620000D03*
D16*
X75370000Y-75080000D03*
D17*
X74350000Y-73300000D03*
X73330000Y-75080000D03*
X72310000Y-73300000D03*
X71290000Y-75080000D03*
X70270000Y-73300000D03*
X69250000Y-75080000D03*
X68230000Y-73300000D03*
D18*
X79900000Y-74190000D03*
X63700000Y-74190000D03*
D17*
X76370000Y-68620000D03*
D19*
X78150000Y-77620000D03*
X65450000Y-77620000D03*
D17*
X78660000Y-68620000D03*
X64940000Y-68620000D03*
X67230000Y-68620000D03*
D20*
X81010000Y-91675000D03*
D21*
X81010000Y-94215000D03*
X81010000Y-96755000D03*
X81010000Y-99295000D03*
X81010000Y-101835000D03*
X81010000Y-104375000D03*
D20*
X84185000Y-91675000D03*
D21*
X84185000Y-94215000D03*
X84185000Y-96755000D03*
X84185000Y-99295000D03*
X84185000Y-101835000D03*
X84185000Y-104375000D03*
D16*
X73600000Y-94250000D03*
D17*
X73600000Y-96750000D03*
X73600000Y-98750000D03*
X73600000Y-101250000D03*
D22*
X70890000Y-104321000D03*
X70890000Y-91179000D03*
D16*
X91200000Y-94300000D03*
D17*
X91200000Y-96800000D03*
X91200000Y-98800000D03*
X91200000Y-101300000D03*
D22*
X93910000Y-104371000D03*
X93910000Y-91229000D03*
D17*
X98900000Y-101300000D03*
X98900000Y-98800000D03*
X98900000Y-96800000D03*
D16*
X98900000Y-94300000D03*
D23*
X101000000Y-91950000D03*
X101000000Y-103650000D03*
D24*
X101000000Y-100100000D03*
X101000000Y-95500000D03*
D17*
X66000000Y-101350000D03*
X66000000Y-98850000D03*
X66000000Y-96850000D03*
D16*
X66000000Y-94350000D03*
D23*
X63900000Y-92000000D03*
X63900000Y-103700000D03*
D24*
X63900000Y-100150000D03*
X63900000Y-95550000D03*
D25*
X68350000Y-96300000D03*
X68350000Y-97100000D03*
X68350000Y-97900000D03*
X68350000Y-98700000D03*
X68350000Y-99500000D03*
D26*
X62850000Y-102300000D03*
X68350000Y-102300000D03*
X68350000Y-93500000D03*
X62850000Y-93500000D03*
D27*
X95325000Y-87400000D03*
D28*
X99450000Y-89800000D03*
X98800000Y-89800000D03*
X98150000Y-89800000D03*
X97500000Y-89800000D03*
X96850000Y-89800000D03*
D27*
X100975000Y-87400000D03*
D29*
X96150000Y-89400000D03*
X100150000Y-89400000D03*
D30*
X101450000Y-89650000D03*
X94850000Y-89650000D03*
D27*
X69625000Y-87400000D03*
X63975000Y-87400000D03*
D29*
X68800000Y-89400000D03*
X64800000Y-89400000D03*
M02*
