M48
;DRILL file {kicad (2015-01-08 BZR 5360)-product} date 2015-01-22T23:59:00 CET
;FORMAT={-:-/ absolute / inch / decimal}
FMAT,2
INCH,TZ
T1C0.020
T2C0.025
T3C0.035
T4C0.040
T5C0.091
%
G90
G05
M72
T2
X2.7248Y-2.8367
X2.7704Y-3.8981
X3.0498Y-2.8517
X3.0698Y-2.7667
X3.4298Y-2.7867
X3.4473Y-2.8667
X3.7098Y-2.8367
X3.7244Y-3.8943
X3.7398Y-2.7017
T3
X2.5567Y-2.7016
X2.5984Y-3.7146
X2.5984Y-3.813
X2.5984Y-3.8917
X2.5984Y-3.9902
X2.6469Y-2.7016
X2.6862Y-2.8858
X2.7264Y-2.9559
X2.7665Y-2.8858
X2.8067Y-2.9559
X2.8469Y-2.8858
X2.887Y-2.9559
X2.8976Y-3.7106
X2.8976Y-3.8091
X2.8976Y-3.8878
X2.8976Y-3.9862
X2.9272Y-2.8858
X2.9673Y-2.9559
X3.0067Y-2.7016
X3.0969Y-2.7016
X3.3846Y-2.7016
X3.4748Y-2.7016
X3.5142Y-2.8858
X3.5543Y-2.9559
X3.5906Y-3.7126
X3.5906Y-3.811
X3.5906Y-3.8898
X3.5906Y-3.9882
X3.5945Y-2.8858
X3.6346Y-2.9559
X3.6748Y-2.8858
X3.715Y-2.9559
X3.7551Y-2.8858
X3.7953Y-2.9559
X3.8346Y-2.7016
X3.8937Y-3.7126
X3.8937Y-3.811
X3.8937Y-3.8898
X3.8937Y-3.9882
X3.9248Y-2.7016
T4
X2.5498Y-2.4467
X2.5498Y-2.5467
X2.6498Y-2.4467
X2.6498Y-2.5467
X2.8498Y-2.4467
X2.8498Y-2.5467
X2.9498Y-2.4467
X2.9498Y-2.5467
X3.0498Y-2.4467
X3.0498Y-2.5467
X3.1498Y-2.4467
X3.1498Y-2.5467
X3.1894Y-3.6093
X3.1894Y-3.7093
X3.1894Y-3.8093
X3.1894Y-3.9093
X3.1894Y-4.0093
X3.1894Y-4.1093
X3.2498Y-2.4467
X3.2498Y-2.5467
X3.3144Y-3.6093
X3.3144Y-3.7093
X3.3144Y-3.8093
X3.3144Y-3.9093
X3.3144Y-4.0093
X3.3144Y-4.1093
X3.3498Y-2.4467
X3.3498Y-2.5467
X3.4498Y-2.4467
X3.4498Y-2.5467
X3.5498Y-2.4467
X3.5498Y-2.5467
X3.6498Y-2.4467
X3.6498Y-2.5467
X3.8498Y-2.4467
X3.8498Y-2.5467
X3.9498Y-2.4467
X3.9498Y-2.5467
T5
X2.7909Y-3.5897
X2.7909Y-4.1071
X3.6972Y-3.5917
X3.6972Y-4.1091
T1
X2.5079Y-2.8972G85X2.5079Y-2.9445
G05
X2.5187Y-3.4547G85X2.5187Y-3.4272
G05
X2.7411Y-3.4547G85X2.7411Y-3.4272
G05
X3.1457Y-2.8972G85X3.1457Y-2.9445
G05
X3.3358Y-2.8972G85X3.3358Y-2.9445
G05
X3.753Y-3.4272G85X3.753Y-3.4547
G05
X3.9736Y-2.8972G85X3.9736Y-2.9445
G05
X3.9754Y-3.4272G85X3.9754Y-3.4547
G05
T3
X2.4843Y-3.622G85X2.5472Y-3.622
G05
X2.4843Y-4.0827G85X2.5472Y-4.0827
G05
X3.9449Y-3.6201G85X4.0079Y-3.6201
G05
X3.9449Y-4.0807G85X4.0079Y-4.0807
G05
T0
M30
