G04 #@! TF.FileFunction,Profile,NP*
%FSLAX46Y46*%
G04 Gerber Fmt 4.6, Leading zero omitted, Abs format (unit mm)*
G04 Created by KiCad (PCBNEW (2015-01-08 BZR 5360)-product) date 2015-01-22T23:58:58 CET*
%MOMM*%
G01*
G04 APERTURE LIST*
%ADD10C,0.100000*%
%ADD11C,0.025400*%
G04 APERTURE END LIST*
D10*
D11*
X62000000Y-85000000D02*
X80500000Y-85000000D01*
X80500000Y-84000000D02*
X61000000Y-84000000D01*
X84500000Y-84000000D02*
X104000000Y-84000000D01*
X103000000Y-85000000D02*
X84500000Y-85000000D01*
X105000000Y-61000000D02*
X105000000Y-83000000D01*
X61000000Y-60000000D02*
X104000000Y-60000000D01*
X60000000Y-83000000D02*
X60000000Y-61000000D01*
X60000000Y-83000000D02*
G75*
G03X61000000Y-84000000I1000000J0D01*
G01*
X104000000Y-84000000D02*
G75*
G03X105000000Y-83000000I0J1000000D01*
G01*
X61000000Y-60000000D02*
G75*
G03X60000000Y-61000000I0J-1000000D01*
G01*
X105000000Y-61000000D02*
G75*
G03X104000000Y-60000000I-1000000J0D01*
G01*
X61000000Y-107000000D02*
X61000000Y-86000000D01*
X62000000Y-108000000D02*
X103500000Y-108000000D01*
X104000000Y-86000000D02*
X104000000Y-107000000D01*
X103000000Y-108000000D02*
G75*
G03X104000000Y-107000000I0J1000000D01*
G01*
X61000000Y-107000000D02*
G75*
G03X62000000Y-108000000I1000000J0D01*
G01*
X62000000Y-85000000D02*
G75*
G03X61000000Y-86000000I0J-1000000D01*
G01*
X104000000Y-86000000D02*
G75*
G03X103000000Y-85000000I-1000000J0D01*
G01*
X80500000Y-85000000D02*
G75*
G03X80500000Y-84000000I0J500000D01*
G01*
X84500000Y-84000000D02*
G75*
G03X84500000Y-85000000I0J-500000D01*
G01*
M02*
